<svg xmlns="http://www.w3.org/2000/svg" xmlns:xlink="http://www.w3.org/1999/xlink" data-noselect="" viewBox="0 0 800 600" width="800" height="600" preserveAspectRatio="none" version="1.1" class="svg-canvas"><defs/> <g id="background" data-noselect=""><!----> <!----></g> <g id="shape_PrvydiWXWl" transform="translate(219.76125444415,207.98383514081) rotate(0,84.477491111693,92.016164859194) scale(1,1)" filter="" style="opacity: 1;"><g><rect fill="rgba(0,0,0,0)" width="188.95498222339" height="204.03232971839" x="-10" y="-10"/><svg xmlns="http://www.w3.org/2000/svg" xmlns:xlink="http://www.w3.org/1999/xlink" version="1.1" id="图层_1" x="0px" y="0px" viewBox="0 0 152.4 166" style="enable-background:new 0 0 152.4 166;" xml:space="preserve" width="168.95498222339" height="184.03232971839" class="style-removed" preserveAspectRatio="none" data-parent="shape_PrvydiWXWl">

<g>
	<g>
		<g>
			<path d="M149.1,130.8c0.6-0.5,1.4,0.3,1,0.9C135,152.5,110.6,166,83,166c-17,0-32.7-5.1-45.9-13.8     c0.2,0.2,0.3,0.3,0.5,0.5c-0.3-0.2-0.5-0.5-0.8-0.7c-4.7-4.3-9-9.6-12.8-15.7c-12.7-20.5,1.6-50,1.6-50c-0.1,0.7-0.1,1.3-0.2,2     c-2.5,30.2,9.4,42.8,14.7,50c5.4,7.4,17.3,14.2,22.8,8.7c6.2-6,1.5-10.5-3.5-17.3c-6-8,1.9-14.9,10.6-7.8     c7.8,6.4,21.1,19.8,40.5,19.8C124.3,141.7,137.9,139.2,149.1,130.8z" fill="#F95919" stroke-width="0"/>
			<circle cx="45.6" cy="121.3" r="5" fill="#F95919" stroke-width="0"/>
			<circle cx="55" cy="137.4" r="2.1" fill="#F95919" stroke-width="0"/>
		</g>
	</g>
	<g>
		<g>
			<path d="M85,24.9c-0.6-0.1-1.2-0.2-1.8-0.3c-29.9-5.8-43.7,4.7-51.4,9.3c-7.9,4.6-15.9,15.6-11.1,21.8     c5.3,6.8,10.3,2.6,17.5-1.7c8.6-5.2,14.6,3.5,6.7,11.4c-5.1,5-13.9,12.3-19.4,23c-2.3,4.5-4,9.5-4.6,15.2     c-1.9,18,2.1,33.8,16.2,48.8c0.2,0.2,0.3,0.3,0.5,0.5c-0.3-0.2-0.5-0.5-0.8-0.7C14.6,137.1,0,111.7,0,83c0-20.9,7.7-40,20.5-54.6     c1.3-1.5,2.7-3,4.1-4.4c3.4-2.2,7-4.2,10.7-6C57.1,7.5,85,24.9,85,24.9z" fill="#00A6EF" stroke-width="0"/>
			<circle cx="47.9" cy="41" r="5" fill="#00A6EF" stroke-width="0"/>
			<circle cx="31" cy="48.7" r="2.1" fill="#00A6EF" stroke-width="0"/>
		</g>
	</g>
	<g>
		<g>
			<path d="M138.5,40.3c-3.9-12.1-13.2-18-19.9-14.2c-7.5,4.3-4.1,9.8-0.9,17.6c3.9,9.3-5.6,14-12.2,4.9     c-4.5-6.2-11.1-17.1-22.3-24.1c-3.5-2.2-7.5-4-12-5.2c-17.5-4.5-33.8-2.9-50.7,9c1.3-1.5,2.7-3,4.1-4.4C39.7,9.1,60.2,0,83,0     c23.2,0,44.1,9.5,59.1,24.8c0.6,0.6,1.2,1.2,1.7,1.8c0.1,0.1,0.1,0.1,0.2,0.2c0.2,0.2,0.4,0.4,0.5,0.6c3.5,3.9,5.9,8,7.1,12.3     C155.4,53,143.9,56.9,138.5,40.3z" fill="#05D6BD" stroke-width="0"/>
			<circle cx="130" cy="50.3" r="5" fill="#05D6BD" stroke-width="0"/>
			<circle cx="123.9" cy="37.4" r="2.1" fill="#05D6BD" stroke-width="0"/>
		</g>
	</g>
</g>
</svg></g></g><g id="shape_w22bplSSv7" transform="translate(224.56874555585,31.49000000000001) rotate(0,215.17000000000002,268.51) scale(1,1)" filter="" style="opacity: 1;"><g><svg xmlns="http://www.w3.org/2000/svg" xmlns:xlink="http://www.w3.org/1999/xlink" version="1.1" width="579.6800000000001" height="537.02" viewBox="0 0 579.6800000000001 537.02"><g data-width="280.75919999999996" transform="translate(74.67, 0)"><path d="M28.60-42.56L28.60-49.21L42.26-49.21L40.02-53.91L49.58-53.91L51.75-49.21L66.75-49.21L66.75-42.56L28.60-42.56ZM66.75-8.66L66.75 0.15Q61.30-1.34 56.53-3.25Q51.75-5.15 47.64-7.62L47.64-7.62Q43.53-5.15 38.75-3.25Q33.97-1.34 28.52 0.15L28.52 0.15L28.52-8.66Q31.88-9.56 34.83-10.64Q37.78-11.72 40.40-13.07L40.40-13.07Q37.26-15.90 34.91-19.34Q32.56-22.77 30.91-26.96L30.91-26.96L41.07-26.96Q43.61-21.73 47.64-18.07L47.64-18.07Q51.67-21.73 54.21-26.96L54.21-26.96L64.37-26.96Q61.08-18.82 54.88-13.07L54.88-13.07Q57.50-11.72 60.45-10.64Q63.39-9.56 66.75-8.66L66.75-8.66ZM66.98-28.60L56.82-28.60L51.22-40.77L61.30-40.77L66.98-28.60ZM44.13-40.77L38.53-28.60L28.45-28.60L34.05-40.77L44.13-40.77ZM26.73-49.58L26.73-42.26L18.52-42.26L18.52-0.07L9.86-0.07L9.86-42.26L1.64-42.26L1.64-49.58L9.86-49.58L9.86-53.91L18.52-53.91L18.52-49.58L26.73-49.58ZM7.47-0.07L1.64-0.07L2.99-40.32L8.81-40.32L7.47-0.07ZM20.98-0.07L19.56-40.32L25.39-40.32L26.73-0.07L20.98-0.07Z" transform="translate(0 295.01) " fill="#ffffff" stroke="#ffffff" stroke-width="0.124" data-glyph-w="68.6964" data-glyph-h="74.67" data-glyph-ascender="64.14153" data-glyph-descender="-10.52847"/><path d="M48.46-14.64L54.51-14.64L51.90-9.56L44.88-9.56Q42.19-9.56 40.32-11.20Q38.46-12.84 38.46-15.23L38.46-15.23L38.46-24.64L29.72-24.64L24.94-9.56L16.73-9.56L21.50-24.64L14.19-24.64L14.19-31.36L54.43-31.36L54.43-24.64L46.59-24.64L46.59-16.28Q46.59-15.61 47.12-15.12Q47.64-14.64 48.46-14.64L48.46-14.64ZM49.80-42.56L49.80-35.92L18.82-35.92L18.82-42.56L49.80-42.56ZM50.48 0.07L11.13 0.07L1.49 0.07L1.49-53.84L67.13-53.84L67.13-8.14Q67.13-6.42 66.46-4.93Q65.78-3.43 64.66-2.31Q63.54-1.19 62.05-0.56Q60.56 0.07 58.91 0.07L58.91 0.07L53.54 0.07L50.48 0.07ZM11.13-46.44L11.13-7.32L53.54-7.32L55.11-7.32Q56.15-7.32 56.82-7.99Q57.50-8.66 57.50-9.71L57.50-9.71L57.50-46.44L11.13-46.44Z" transform="translate(68.6964 295.01) " fill="#ffffff" stroke="#ffffff" stroke-width="0.124" data-glyph-w="68.6964" data-glyph-h="74.67" data-glyph-ascender="64.14153" data-glyph-descender="-10.52847"/><path d="M69.89-33.23L57.79-33.23L57.79-7.54L69.89-7.54L69.89-0.15L35.09-0.15L35.09-7.54L47.42-7.54L47.42-33.23L35.09-33.23L35.09-40.62L47.42-40.62L47.42-53.69L57.79-53.69L57.79-40.62L69.89-40.62L69.89-33.23ZM28.08-31.66L33.23-15.68L25.09-15.68L22.48-23.75L22.48-0.15L12.77-0.15L12.77-17.40L4.70-17.40L17.92-40.62L6.35-40.62L6.35-47.94L12.02-47.86L9.48-53.69L20.24-53.69L22.77-47.94L32.71-47.94L23.89-31.66L28.08-31.66Z" transform="translate(137.3928 295.01) " fill="#ffffff" stroke="#ffffff" stroke-width="0.124" data-glyph-w="74.67" data-glyph-h="74.67" data-glyph-ascender="64.14153" data-glyph-descender="-10.52847"/><path d="M64.22-0.07L9.04-0.07Q6.05-0.07 3.96-2.17Q1.87-4.26 1.87-7.24L1.87-7.24L1.87-46.44L1.87-52.94L1.87-53.69L66.83-53.69L66.83-46.44L12.54-46.44L12.54-9.04Q12.54-8.29 13.03-7.80Q13.52-7.32 14.19-7.32L14.19-7.32L66.83-7.32L64.22-0.07ZM15.76-9.26L15.76-18.29Q20.16-19.19 23.86-20.31Q27.55-21.43 30.84-22.92L30.84-22.92Q26.58-26.96 23.15-32.03Q19.71-37.11 16.58-43.53L16.58-43.53L27.55-43.53Q30.61-38.68 33.56-35.02Q36.51-31.36 39.87-28.60L39.87-28.60Q43.16-31.36 46.15-35.02Q49.13-38.68 52.19-43.53L52.19-43.53L63.17-43.53Q60.03-37.11 56.56-32.03Q53.09-26.96 48.83-22.92L48.83-22.92Q52.12-21.43 55.85-20.31Q59.59-19.19 63.99-18.29L63.99-18.29L63.99-9.26Q56.53-10.23 50.63-12.02Q44.73-13.81 39.87-16.43L39.87-16.43Q35.02-13.81 29.12-12.02Q23.22-10.23 15.76-9.26L15.76-9.26Z" transform="translate(212.06279999999998 295.01) " fill="#ffffff" stroke="#ffffff" stroke-width="0.124" data-glyph-w="68.6964" data-glyph-h="74.67" data-glyph-ascender="64.14153" data-glyph-descender="-10.52847"/></g></svg></g></g><g id="shape_D3I1nlOCyv" transform="translate(293.70494948119,284.26639592258) rotate(0,109.73,63.69) scale(1,1)" filter="" style="opacity: 1;"><g><svg xmlns="http://www.w3.org/2000/svg" xmlns:xlink="http://www.w3.org/1999/xlink" version="1.1" width="254.92" height="127.38" viewBox="0 0 254.92 127.38"><g data-width="183.9496503515625" transform="translate(17.73, 0)"><path d="M6.93-1.82Q9.90-1.82 11.83-4.10L11.83-4.10L10.81-4.96Q9.29-3.14 6.93-3.14L6.93-3.14Q4.82-3.14 3.33-4.63L3.33-4.63Q1.84-6.12 1.84-8.22L1.84-8.22Q1.84-10.33 3.33-11.82L3.33-11.82Q4.82-13.30 6.93-13.30L6.93-13.30Q9.29-13.30 10.81-11.49L10.81-11.49L11.83-12.34Q9.90-14.63 6.93-14.63L6.93-14.63Q4.27-14.63 2.40-12.75L2.40-12.75Q0.52-10.87 0.52-8.22L0.52-8.22Q0.52-5.57 2.40-3.70L2.40-3.70Q4.27-1.82 6.93-1.82L6.93-1.82Z" transform="translate(0 69.19) " fill="#ffffff" stroke="#ffffff" stroke-width="0.03" data-glyph-w="12.345205078125" data-glyph-h="18.474521484375" data-glyph-ascender="14.85580078125" data-glyph-descender="-3.618720703125"/><path d="M9.51-5.58L3.19-5.58L1.63-2.04L0.17-2.04L5.67-14.41L7.04-14.41L12.54-2.04L11.09-2.04L9.51-5.58ZM6.35-12.68L3.78-6.90L8.93-6.90L6.35-12.68Z" transform="translate(12.345205078125 69.19) " fill="#ffffff" stroke="#ffffff" stroke-width="0.03" data-glyph-w="12.70880859375" data-glyph-h="18.474521484375" data-glyph-ascender="14.85580078125" data-glyph-descender="-3.618720703125"/><path d="M6.70-5.79L2.19-12.12L2.19-2.04L0.87-2.04L0.87-14.41L2.19-14.41L7.26-7.29L12.35-14.41L13.67-14.41L13.67-2.04L12.35-2.04L12.35-12.12L7.83-5.79L6.70-5.79Z" transform="translate(25.054013671874998 69.19) " fill="#ffffff" stroke="#ffffff" stroke-width="0.03" data-glyph-w="14.535483398437501" data-glyph-h="18.474521484375" data-glyph-ascender="14.85580078125" data-glyph-descender="-3.618720703125"/><path d="M5.95-14.41L0.87-14.41L0.87-2.04L2.19-2.04L2.19-6.46L5.95-6.46Q7.59-6.46 8.75-7.62L8.75-7.62Q9.92-8.79 9.92-10.43L9.92-10.43Q9.92-12.08 8.75-13.25L8.75-13.25Q7.59-14.41 5.95-14.41L5.95-14.41ZM2.19-13.08L5.95-13.08Q7.05-13.08 7.82-12.30L7.82-12.30Q8.60-11.53 8.60-10.43L8.60-10.43Q8.60-9.33 7.82-8.55L7.82-8.55Q7.05-7.78 5.95-7.78L5.95-7.78L2.19-7.78L2.19-13.08Z" transform="translate(39.5894970703125 69.19) " fill="#ffffff" stroke="#ffffff" stroke-width="0.03" data-glyph-w="10.440615234375" data-glyph-h="18.474521484375" data-glyph-ascender="14.85580078125" data-glyph-descender="-3.618720703125"/><path d="M5.72-1.82Q7.74-1.82 9.16-2.99L9.16-2.99Q10.58-4.15 10.58-5.79L10.58-5.79L10.58-14.41L9.25-14.41L9.25-5.79Q9.25-4.69 8.22-3.92L8.22-3.92Q7.19-3.14 5.72-3.14L5.72-3.14Q4.26-3.14 3.23-3.92L3.23-3.92Q2.19-4.69 2.19-5.79L2.19-5.79L2.19-14.41L0.87-14.41L0.87-5.79Q0.87-4.15 2.29-2.99L2.29-2.99Q3.71-1.82 5.72-1.82L5.72-1.82Z" transform="translate(50.0301123046875 69.19) " fill="#ffffff" stroke="#ffffff" stroke-width="0.03" data-glyph-w="11.444853515625" data-glyph-h="18.474521484375" data-glyph-ascender="14.85580078125" data-glyph-descender="-3.618720703125"/><path d="M5.60-13.30Q7.00-13.30 7.96-12.62L7.96-12.62Q8.91-11.95 8.91-10.99L8.91-10.99L10.23-10.99Q10.23-12.50 8.91-13.56L8.91-13.56Q7.57-14.63 5.60-14.63L5.60-14.63Q3.63-14.63 2.32-13.70L2.32-13.70Q0.96-12.74 0.96-11.20L0.96-11.20Q0.96-9.56 2.27-8.75L2.27-8.75Q3.15-8.22 5.16-7.87L5.16-7.87Q7.42-7.47 8.04-7.21L8.04-7.21Q9.35-6.67 9.35-5.46L9.35-5.46Q9.35-4.42 8.25-3.77L8.25-3.77Q7.20-3.14 5.60-3.14L5.60-3.14Q3.97-3.14 2.89-3.98L2.89-3.98Q1.84-4.80 1.84-6.02L1.84-6.02L0.52-6.02Q0.52-4.25 1.94-3.05L1.94-3.05Q3.39-1.82 5.60-1.82L5.60-1.82Q7.78-1.82 9.19-2.77L9.19-2.77Q10.67-3.77 10.67-5.46L10.67-5.46Q10.67-7.16 9.37-8.00L9.37-8.00Q8.47-8.58 6.48-8.93L6.48-8.93Q4.14-9.36 3.60-9.57L3.60-9.57Q2.29-10.08 2.29-11.20L2.29-11.20Q2.29-12.17 3.26-12.75L3.26-12.75Q4.18-13.30 5.60-13.30L5.60-13.30Z" transform="translate(61.4749658203125 69.19) " fill="#ffffff" stroke="#ffffff" stroke-width="0.03" data-glyph-w="11.1937939453125" data-glyph-h="18.474521484375" data-glyph-ascender="14.85580078125" data-glyph-descender="-3.618720703125"/><path d="" transform="translate(72.668759765625 69.19) " fill="#ffffff" stroke="#ffffff" stroke-width="0.03" data-glyph-w="7.05654" data-glyph-h="17.73" data-glyph-ascender="15.6024" data-glyph-descender="-2.1275999999999997"/><path d="M6.93-1.82Q9.90-1.82 11.83-4.10L11.83-4.10L10.81-4.96Q9.29-3.14 6.93-3.14L6.93-3.14Q4.82-3.14 3.33-4.63L3.33-4.63Q1.84-6.12 1.84-8.22L1.84-8.22Q1.84-10.33 3.33-11.82L3.33-11.82Q4.82-13.30 6.93-13.30L6.93-13.30Q9.29-13.30 10.81-11.49L10.81-11.49L11.83-12.34Q9.90-14.63 6.93-14.63L6.93-14.63Q4.27-14.63 2.40-12.75L2.40-12.75Q0.52-10.87 0.52-8.22L0.52-8.22Q0.52-5.57 2.40-3.70L2.40-3.70Q4.27-1.82 6.93-1.82L6.93-1.82Z" transform="translate(79.725299765625 69.19) " fill="#ffffff" stroke="#ffffff" stroke-width="0.03" data-glyph-w="12.345205078125" data-glyph-h="18.474521484375" data-glyph-ascender="14.85580078125" data-glyph-descender="-3.618720703125"/><path d="M6.93-14.63Q9.57-14.63 11.45-12.75L11.45-12.75Q13.32-10.87 13.32-8.22L13.32-8.22Q13.32-5.57 11.45-3.70L11.45-3.70Q9.57-1.82 6.93-1.82L6.93-1.82Q4.27-1.82 2.40-3.70L2.40-3.70Q0.52-5.57 0.52-8.22L0.52-8.22Q0.52-10.87 2.40-12.75L2.40-12.75Q4.27-14.63 6.93-14.63L6.93-14.63ZM6.93-13.30L6.93-13.30Q4.82-13.30 3.33-11.82L3.33-11.82Q1.84-10.33 1.84-8.22L1.84-8.22Q1.84-6.12 3.33-4.63L3.33-4.63Q4.82-3.14 6.93-3.14L6.93-3.14Q9.03-3.14 10.52-4.63L10.52-4.63Q12.00-6.12 12.00-8.22L12.00-8.22Q12.00-10.33 10.52-11.82L10.52-11.82Q9.03-13.30 6.93-13.30Z" transform="translate(92.07050484375 69.19) " fill="#ffffff" stroke="#ffffff" stroke-width="0.03" data-glyph-w="13.8429052734375" data-glyph-h="18.474521484375" data-glyph-ascender="14.85580078125" data-glyph-descender="-3.618720703125"/><path d="M6.70-5.79L2.19-12.12L2.19-2.04L0.87-2.04L0.87-14.41L2.19-14.41L7.26-7.29L12.35-14.41L13.67-14.41L13.67-2.04L12.35-2.04L12.35-12.12L7.83-5.79L6.70-5.79Z" transform="translate(105.9134101171875 69.19) " fill="#ffffff" stroke="#ffffff" stroke-width="0.03" data-glyph-w="14.535483398437501" data-glyph-h="18.474521484375" data-glyph-ascender="14.85580078125" data-glyph-descender="-3.618720703125"/><path d="M6.70-5.79L2.19-12.12L2.19-2.04L0.87-2.04L0.87-14.41L2.19-14.41L7.26-7.29L12.35-14.41L13.67-14.41L13.67-2.04L12.35-2.04L12.35-12.12L7.83-5.79L6.70-5.79Z" transform="translate(120.448893515625 69.19) " fill="#ffffff" stroke="#ffffff" stroke-width="0.03" data-glyph-w="14.535483398437501" data-glyph-h="18.474521484375" data-glyph-ascender="14.85580078125" data-glyph-descender="-3.618720703125"/><path d="M5.72-1.82Q7.74-1.82 9.16-2.99L9.16-2.99Q10.58-4.15 10.58-5.79L10.58-5.79L10.58-14.41L9.25-14.41L9.25-5.79Q9.25-4.69 8.22-3.92L8.22-3.92Q7.19-3.14 5.72-3.14L5.72-3.14Q4.26-3.14 3.23-3.92L3.23-3.92Q2.19-4.69 2.19-5.79L2.19-5.79L2.19-14.41L0.87-14.41L0.87-5.79Q0.87-4.15 2.29-2.99L2.29-2.99Q3.71-1.82 5.72-1.82L5.72-1.82Z" transform="translate(134.9843769140625 69.19) " fill="#ffffff" stroke="#ffffff" stroke-width="0.03" data-glyph-w="11.444853515625" data-glyph-h="18.474521484375" data-glyph-ascender="14.85580078125" data-glyph-descender="-3.618720703125"/><path d="M9.25-4.41L9.25-14.41L10.58-14.41L10.58-2.04L9.32-2.04L2.19-12.04L2.19-2.04L0.87-2.04L0.87-14.41L2.13-14.41L9.25-4.41Z" transform="translate(146.4292304296875 69.19) " fill="#ffffff" stroke="#ffffff" stroke-width="0.03" data-glyph-w="11.444853515625" data-glyph-h="18.474521484375" data-glyph-ascender="14.85580078125" data-glyph-descender="-3.618720703125"/><path d="M2.19-2.04L2.19-14.41L0.87-14.41L0.87-2.04L2.19-2.04Z" transform="translate(157.8740839453125 69.19) " fill="#ffffff" stroke="#ffffff" stroke-width="0.03" data-glyph-w="3.0560009765625002" data-glyph-h="18.474521484375" data-glyph-ascender="14.85580078125" data-glyph-descender="-3.618720703125"/><path d="M4.49-2.04L4.49-13.08L0.52-13.08L0.52-14.41L9.79-14.41L9.79-13.08L5.82-13.08L5.82-2.04L4.49-2.04Z" transform="translate(160.930084921875 69.19) " fill="#ffffff" stroke="#ffffff" stroke-width="0.03" data-glyph-w="10.3107568359375" data-glyph-h="18.474521484375" data-glyph-ascender="14.85580078125" data-glyph-descender="-3.618720703125"/><path d="M5.70-7.33L5.70-2.04L7.02-2.04L7.02-7.35L12.54-14.41L10.86-14.41L6.35-8.64L1.85-14.41L0.17-14.41L5.70-7.33Z" transform="translate(171.2408417578125 69.19) " fill="#ffffff" stroke="#ffffff" stroke-width="0.03" data-glyph-w="12.70880859375" data-glyph-h="18.474521484375" data-glyph-ascender="14.85580078125" data-glyph-descender="-3.618720703125"/></g></svg></g></g><defs><pattern id="wm_tile" x="0" y="0" width="20%" height="27%" patternunits="objectBoundingBox"><g id="wm_lm" transform="translate(-188.000000, -323.000000)" fill="#cccccc"><text font-size="15" transform="translate(270.490979, 373.245789) rotate(-390.000000) translate(-270.490979, -373.245789)"><tspan x="187.490979" opacity=".3" y="378.245789"></tspan></text></g></pattern></defs><rect x="0" y="0" width="100%" height="100%" style="fill: url(#wm_tile);"/></svg>