<?xml version="1.0" standalone="no"?><!DOCTYPE svg PUBLIC "-//W3C//DTD SVG 1.1//EN" "http://www.w3.org/Graphics/SVG/1.1/DTD/svg11.dtd"><svg t="1650866293386" class="icon" viewBox="0 0 1024 1024" version="1.1" xmlns="http://www.w3.org/2000/svg" p-id="7406" xmlns:xlink="http://www.w3.org/1999/xlink" width="50" height="50"><defs><style type="text/css">@font-face { font-family: feedback-iconfont; src: url("//at.alicdn.com/t/font_1031158_u69w8yhxdu.woff2?t=1630033759944") format("woff2"), url("//at.alicdn.com/t/font_1031158_u69w8yhxdu.woff?t=1630033759944") format("woff"), url("//at.alicdn.com/t/font_1031158_u69w8yhxdu.ttf?t=1630033759944") format("truetype"); }
</style></defs><path d="M805.616327 476.473469c-3.657143 0-295.706122-103.967347-295.706123-103.967347s-287.346939 103.967347-291.004082 103.967347c-44.408163 0-79.934694 39.183673-79.934693 87.24898s36.04898 87.24898 79.934693 87.24898c3.657143 0 7.314286-0.522449 10.971429-1.044898 34.481633 134.791837 176.587755 233.534694 282.644898 233.534693s248.163265-98.742857 282.644898-233.534693c3.657143 0.522449 7.314286 1.044898 10.971429 1.044898 44.408163 0 79.934694-39.183673 79.934693-87.24898s-36.571429-87.24898-80.457142-87.24898z" fill="#FFF4D7" p-id="7407"></path><path d="M512 907.493878c-57.991837 0-124.342857-26.122449-182.334694-71.053062-56.42449-43.885714-97.697959-100.832653-117.55102-161.959183-54.334694-3.657143-97.17551-51.722449-97.17551-110.759184 0-59.559184 44.408163-108.669388 99.787755-110.759184C237.714286 445.64898 396.538776 388.179592 501.55102 350.040816l7.836735-3.134694 7.836735 2.612245c107.102041 38.138776 268.538776 95.608163 291.52653 102.922449 55.379592 2.089796 99.787755 50.677551 99.787756 110.759184 0 59.036735-42.840816 107.102041-97.175511 110.759184-19.853061 61.126531-61.126531 117.55102-117.55102 161.959183-57.469388 45.453061-123.820408 71.57551-181.812245 71.575511z m-264.881633-283.689796l5.22449 20.37551c14.628571 57.469388 52.767347 112.84898 106.579592 154.644898C407.510204 837.485714 464.979592 860.473469 512 860.473469s104.489796-22.987755 153.6-61.12653c53.812245-42.318367 91.428571-97.17551 106.579592-154.644898l5.22449-20.37551 20.897959 3.134693c2.612245 0.522449 5.22449 0.522449 7.314286 0.522449 31.346939 0 56.42449-28.734694 56.424489-63.738775s-25.6-63.738776-56.424489-63.738776c-5.22449 0-5.22449 0-55.379592-17.763265-24.555102-8.881633-59.036735-20.897959-101.355102-36.048979-58.514286-20.897959-117.55102-41.795918-138.44898-49.110205-20.897959 7.314286-78.889796 28.734694-136.359184 49.110205-41.795918 15.15102-75.755102 27.167347-99.787755 36.048979-50.155102 17.763265-50.155102 17.763265-55.379592 17.763265-31.346939 0-56.42449 28.734694-56.424489 63.738776s25.6 63.738776 56.424489 63.738775c2.612245 0 5.22449 0 7.314286-0.522449l20.897959-3.657142z m-28.734694-170.840817z m587.232654 0z" fill="#EAC552" p-id="7408"></path><path d="M798.82449 423.706122c3.657143 20.37551-9.926531 40.228571-30.82449 43.363266-48.587755 8.359184-141.583673 20.897959-258.612245 20.897959-115.983673 0-206.367347-12.538776-254.432653-20.897959-19.853061-3.134694-33.959184-22.987755-30.302041-43.363266l42.318368-237.191836c3.134694-16.195918 16.195918-28.734694 32.914285-30.82449 47.542857-5.22449 56.42449-15.673469 212.114286-15.673469s164.571429 9.926531 212.114286 15.673469c16.718367 2.089796 29.779592 14.628571 32.914285 30.82449l41.795919 237.191836z" fill="#F8FDFF" p-id="7409"></path><path d="M583.053061 292.04898h-48.587755v-48.587756c0-12.016327-9.926531-21.942857-21.942857-21.942857-12.016327 0-21.942857 9.926531-21.942857 21.942857v48.587756h-48.587755c-12.016327 0-21.942857 9.926531-21.942857 21.942857s9.926531 21.942857 21.942857 21.942857h48.587755v48.587755c0 12.016327 9.926531 21.942857 21.942857 21.942857 12.016327 0 21.942857-9.926531 21.942857-21.942857v-48.587755h48.587755c12.016327 0 21.942857-9.926531 21.942857-21.942857s-9.926531-21.942857-21.942857-21.942857z" fill="#E5404F" p-id="7410"></path><path d="M378.253061 609.17551m-42.840816 0a42.840816 42.840816 0 1 0 85.681633 0 42.840816 42.840816 0 1 0-85.681633 0Z" fill="#3D2A03" p-id="7411"></path><path d="M645.746939 609.17551m-42.840817 0a42.840816 42.840816 0 1 0 85.681633 0 42.840816 42.840816 0 1 0-85.681633 0Z" fill="#3D2A03" p-id="7412"></path><path d="M509.910204 512c-119.640816 0-213.159184-13.061224-258.089796-21.420408-16.195918-2.612245-30.302041-12.016327-39.706122-25.077551-9.404082-13.583673-13.061224-29.779592-9.926531-45.453061l42.318367-237.714286c4.702041-26.644898 26.644898-47.020408 53.289796-50.155102 10.971429-1.044898 19.853061-2.612245 29.257143-4.179592 30.82449-5.22449 65.828571-11.493878 185.991837-11.493878s154.644898 5.746939 185.469388 11.493878c9.404082 1.567347 18.285714 3.134694 29.257143 4.179592 26.644898 3.134694 48.587755 23.510204 53.289795 50.155102l41.795919 237.191837c3.134694 16.195918-1.044898 32.391837-10.44898 45.97551-9.404082 13.583673-23.510204 22.465306-39.706122 25.077551-47.020408 7.836735-142.628571 21.420408-262.791837 21.420408z m2.089796-348.473469c-115.983673 0-148.897959 5.746939-177.632653 10.448979-9.404082 1.567347-19.853061 3.657143-31.869388 4.702041-6.269388 0.522449-10.971429 5.746939-12.538775 11.493878l-41.795919 237.714285c-0.522449 3.657143 0 7.314286 2.089796 10.44898 2.089796 3.134694 5.22449 5.22449 8.881633 5.746939 43.885714 7.836735 134.269388 20.897959 250.253061 20.897959 116.506122 0 209.502041-13.061224 254.955102-20.897959 3.657143-0.522449 6.791837-2.612245 8.881633-5.746939 2.089796-3.134694 3.134694-6.791837 2.612245-10.44898l-41.795919-237.191836c-1.044898-6.269388-6.269388-10.971429-12.538775-11.493878-12.016327-1.567347-21.942857-3.134694-31.869388-4.702041-28.734694-5.22449-61.64898-10.971429-177.632653-10.971428z" fill="#DCF3F9" p-id="7413"></path></svg>