<svg data-v-70b83f88="" version="1.0" xmlns="http://www.w3.org/2000/svg" xmlns:xlink="http://www.w3.org/1999/xlink" width="100%" height="100%" viewBox="0 0 340.000000 250.000000" preserveAspectRatio="xMidYMid meet" color-interpolation-filters="sRGB" style="margin: auto;"> <rect data-v-70b83f88="" x="0" y="0" width="100%" height="100%" fill="#fff" fill-opacity="0" class="background"></rect> <rect data-v-70b83f88="" x="0" y="0" width="100%" height="100%" fill="url(#watermark)" fill-opacity="1" class="watermarklayer"></rect> <g data-v-70b83f88="" fill="#000000" class="icon-text-wrapper icon-svg-group iconsvg" transform="translate(58.063469090494294,60.3623046875)"><g class="iconsvg-imagesvg" transform="translate(81.93653106689453,0)"><g><rect fill="#000000" fill-opacity="0" stroke-width="2" x="0" y="0" width="60" height="66.92320562154927" class="image-rect"></rect> <svg x="0" y="0" width="60" height="66.92320562154927" filtersec="colorsb9585437757" class="image-svg-svg primary" style="overflow: visible;"><svg xmlns="http://www.w3.org/2000/svg" viewBox="3 0 52 58"><path fill="#26b99a" d="M29 58L3 45V13l26 13z"></path><path fill="#556080" d="M29 58l26-13V13L29 26z"></path><path fill="#000000" d="M3 13L28 0l27 13-26 13z"></path></svg></svg> <!----></g></g> <g transform="translate(0,73.92320251464844)"><g data-gra="path-name" fill-rule="" class="tp-name iconsvg-namesvg" transform="translate(0,0)"><g transform="scale(1)"><g><path d="M10.81-5.9C11.54-6.09 12-6.78 11.88-7.9 13.19-8.24 14.64-8.55 16.25-8.78 16.21-5.17 16.1-1.95 15.95 0.08 15.68 2.8 16.98 5.67 18.55 6.52 19.93 7.21 21.27 5.14 21.16 1.19 21.12-1.15 21.08-5.1 21.08-9.35 22.12-9.43 23.15-9.51 24.23-9.54 24.46-9.24 24.69-8.89 24.84-8.62 25.49-7.47 26.22-7.24 27.45-7.63 28.86-8.05 30.13-9.08 30.47-10.31 31.09-12.57 31.97-15.41 32.51-16.98 32.7-17.63 33.04-18.17 33.5-18.55 34.15-19.01 34.23-19.7 33.77-20.28 32.81-21.5 31.51-22.65 30.32-23.5 29.86-23.8 29.32-23.84 28.71-23.54 27.75-23.08 24.72-22.54 21.2-22.08 21.2-24.26 21.27-26.03 21.31-27.14 21.35-27.83 21.43-28.6 21.62-29.13 21.93-29.86 21.93-30.44 21.39-30.74 20.47-31.24 18.67-31.78 16.6-32.01 15.45-32.16 15.33-31.82 15.64-30.9 16.02-30.01 16.14-29.17 16.18-27.83 16.21-26.3 16.25-24.03 16.25-21.5 13.72-21.24 11.31-21.01 9.58-20.89 9.47-21.12 9.35-21.24 9.16-21.35 8.47-21.81 6.82-22.27 5.29-22.27 4.29-22.27 3.95-21.89 4.29-20.97 5.48-17.02 6.09-14.3 6.63-10.54 6.94-8.59 7.21-7.9 7.67-7.28 8.62-6.17 9.7-5.63 10.81-5.9ZM10.27-17.1C10.5-17.1 10.73-17.13 10.96-17.21 12.38-17.56 14.26-17.9 16.29-18.21L16.29-12.3C14.45-12.11 12.73-11.96 11.19-11.84 10.89-13.61 10.54-15.49 10.27-17.1ZM21.12-12.8C21.12-14.87 21.12-16.94 21.16-18.86 23.34-19.13 25.45-19.28 27.25-19.36 27.41-19.36 27.48-19.2 27.45-19.01 27.1-17.33 26.64-15.37 25.95-13.38 24.49-13.19 22.81-12.99 21.12-12.8ZM46.92 3.26C47.53 3.03 48.38 2.22 48.68 0.65 52.63 0.31 59.72-0.04 63.67-0.11 63.98 0.38 64.21 0.92 64.48 1.53 65.05 2.95 65.43 3.79 66.24 3.79 68.88 3.72 71.22 1.03 71.18-2.95 71.11-7.9 70.88-21.93 71.45-24.11 71.72-25.11 72.26-25.68 71.87-26.33 71.15-27.64 67.47-29.67 66.16-29.63 65.28-29.63 64.86-28.37 63.82-28.06 62.52-27.71 54.28-26.91 49.33-26.45 49.3-26.49 49.26-26.56 49.22-26.64 48.49-27.56 46.19-28.71 44.66-28.98 43.51-29.13 43.24-28.52 43.55-27.06 44.04-24.72 44.31-6.44 43.62-2.34 43.51-1.49 43.55 0 44.01 1.03 44.39 2.03 45.81 3.72 46.92 3.26ZM48.84-22.46C53.47-23.08 63.06-24 64.48-23.92 64.86-23.92 65.2-23.8 65.2-23.31 65.43-17.4 65.47-8.28 65.36-3.53 65.36-3.3 65.28-3.1 65.09-2.91 64.71-3.79 64.17-4.14 63.71-4.1 62.1-3.99 53.67-3.6 48.87-3.18 48.91-8.39 48.87-16.9 48.84-22.46ZM50.22-7.4C50.56-6.21 52.06-4.94 53.05-5.14 55.24-5.56 60.26-6.13 63.06-6.06 64.13-6.02 64.97-6.21 64.86-7.05 64.74-7.7 64.36-8.36 63.82-9.08 63.75-9.2 63.63-9.28 63.48-9.35 64.44-10.2 64.51-11.46 62.83-12.27 62.21-12.57 61.03-12.73 60.18-12.69 59.42-12.61 59.72-12.15 60.03-11.77 60.14-11.65 61.06-10.27 61.56-9.62 61.03-9.51 60.14-9.31 59.07-9.16 59.03-10.66 58.99-11.92 58.99-12.99 60.26-13.22 61.41-13.38 62.06-13.38 62.67-13.38 62.79-14.11 62.67-14.6 62.44-15.37 61.6-17.17 60.11-16.6 59.8-16.48 59.45-16.37 59.07-16.21L59.19-17.25C59.3-17.86 59.3-17.94 58.99-18.25 58.88-18.32 58.65-18.4 58.38-18.48 59.88-18.78 61.33-19.01 62.29-19.01 62.98-19.01 63.06-19.47 62.9-20.05 62.75-20.58 62.48-21.43 61.95-21.96 61.72-22.16 61.29-22.58 60.3-22.39 59.57-22.16 59.3-22.12 58.88-22.04 56.43-21.39 52.63-20.47 51.4-20.47 50.68-20.47 50.6-20.09 50.64-19.59 50.79-18.36 52.13-17.06 53.36-17.33L54.51-17.63C54.78-17.06 55.01-16.37 55.16-15.68 55.16-15.52 55.2-15.37 55.2-15.22 53.86-14.95 52.75-14.76 52.29-14.76 51.63-14.76 51.44-14.34 51.63-13.76 51.94-12.88 52.67-11.58 53.63-11.84L55.24-12.19C55.24-11.12 55.24-9.89 55.2-8.59 53.51-8.36 52.02-8.2 51.48-8.24 50.87-8.28 49.99-8.16 50.22-7.4ZM90.12-23.23C91.5-25.26 91.27-27.18 89.12-28.17 87.97-28.67 85.52-29.06 84.33-29.02 83.99-28.98 83.8-28.44 84.06-28.14 85.06-27.06 87.13-24.84 88.59-23.08 88.97-22.58 89.81-22.77 90.12-23.23ZM77.74-5.33C77.09-4.79 77.32-4.33 77.89-4.52 80.58-5.29 83.11-6.86 85.37-8.97 85.56-6.4 85.71-2.72 85.37-0.23 85.18 0.84 85.18 2.15 85.6 2.8 86.36 3.95 87.32 4.41 88.09 4.41 88.82 4.41 89.16 3.3 89.24 1.57 89.39-0.57 89.16-7.32 89.28-9.74 89.89-9.05 90.47-8.36 91-7.74 91.35-7.24 92.19-7.44 92.54-7.86 92.96-8.36 93.26-8.85 93.46-9.31 93.46-7.78 94.49-6.82 95.64-6.17 96.56-5.63 97.52-6.44 97.86-7.78 98.21-7.55 98.55-7.4 98.9-7.44L99.86-7.59C99.82-5.33 99.74-3.18 99.67-1.42 99.59-0.5 99.24 0.57 99.24 1.38 99.24 3.56 100.7 4.98 102 5.63 103.58 6.55 104 4.6 104.27 1.23 104.34-0.77 104.34-4.25 104.34-8.05 104.99-8.13 105.61-8.16 106.03-8.2 106.07-8.09 106.11-7.93 106.11-7.78 106.18-6.98 106.8-6.21 107.79-6.36 108.6-6.44 109.21-6.75 109.86-7.4 110.74-8.24 110.82-9.24 110.82-10.43 110.82-12.8 110.97-18.25 111.36-19.47 111.59-20.24 112.16-20.74 111.82-21.24 111.17-22.27 109.82-23.23 108.67-23.69 107.95-23.96 106.41-23 105.68-22.81L104.46-22.54C104.5-23.04 104.5-23.5 104.53-23.92 104.57-24.72 104.61-25.53 104.84-26.41 105.15-27.6 105.19-28.02 104.57-28.63 103.46-29.63 101.85-30.09 99.78-30.09 99.24-30.13 98.75-29.63 98.94-29.06 99.4-27.87 99.59-27.52 99.67-25.22L99.78-21.81C98.94-21.7 98.09-21.58 97.33-21.5 96.52-22.23 95.3-22.58 93.46-22.73 92.84-22.77 92.42-22.39 92.73-21.89 93.38-20.16 93.49-14.49 93.49-11.23 93.19-11.88 92.57-12.46 91.54-12.84 90.96-13.03 90.12-13.26 89.24-13.38 89.97-14.41 90.66-15.45 91.27-16.56 91.62-17.13 92-17.63 92.54-18.17 92.88-18.55 92.8-19.09 92.57-19.43 91.92-20.39 90.58-21.73 89.74-22.04 89.43-22.23 88.93-22.31 88.09-21.89 86.86-21.2 83.37-20.12 81.88-19.89 81.23-19.82 80.5-19.82 79.96-19.86 79.27-19.89 79.04-19.43 79.23-19.01 79.73-17.82 80.35-16.87 80.96-16.52 81.69-16.1 82.3-15.95 83.49-16.44 84.49-16.83 86.29-17.67 87.36-18.05 87.48-18.09 87.55-17.98 87.51-17.82 86.59-14.64 81-7.97 77.74-5.33ZM97.63-15.87L97.63-18.67C98.25-18.78 99.01-18.9 99.86-19.01 99.86-18.09 99.9-17.13 99.9-16.18 99.21-16.06 98.52-15.98 97.98-15.95 97.86-15.95 97.75-15.91 97.63-15.87ZM97.63-14.37L98.21-13.68C98.82-12.99 99.09-13.11 99.9-13.19L99.9-10.73C99.13-10.66 98.44-10.62 97.86-10.62 97.75-11.61 97.67-12.99 97.63-14.37ZM104.34-13.8C105.19-13.88 105.91-13.95 106.34-13.99 106.34-13.26 106.3-12.5 106.26-11.42 105.8-11.46 105.22-11.38 104.34-11.27ZM104.34-16.87C104.34-17.82 104.38-18.74 104.38-19.59 104.92-19.66 105.38-19.7 105.72-19.74 106.18-19.78 106.37-19.36 106.37-18.86L106.37-16.37C106.34-16.44 106.26-16.48 106.22-16.52 105.65-17.02 105.03-16.98 104.34-16.87ZM132.98-12.65C134.17-12.99 135.93-13.42 137.88-13.8 137.85-12.23 137.81-10.5 137.73-8.85L136.12-8.62C135.24-9.31 133.25-10.08 131.83-9.85 131.14-9.62 131.1-9.08 131.29-8.55 132.17-6.78 132.33-0.54 132.29 1.57 132.17 3.14 133.17 3.91 133.86 4.37 135.74 5.63 136.77 4.14 136.85 2.45 138.5 2.07 140.72 1.84 142.71 1.76 142.71 1.84 142.75 1.95 142.79 2.07 142.83 2.34 142.91 2.68 142.98 2.95 143.48 4.68 148.08 2.87 148.23 0.38 148.46-1.72 148.77-4.83 149.19-6.09 149.42-6.55 149.65-7.47 149.08-8.05 148.35-8.85 146.93-9.81 145.82-10.23 145.17-10.46 144.67-10.23 144.17-10.04 144.13-10 144.09-10 144.02-10 143.86-9.93 143.67-9.85 143.44-9.81L142.18-9.54C142.25-11.23 142.37-13.03 142.48-14.68 145.55-15.22 148.35-15.6 149.65-15.6 151.15-15.6 151.8-16.02 151.53-17.02 151.22-17.94 150.46-19.01 149.65-19.7 149.19-20.2 148.5-20.24 147.74-20.05 146.66-19.66 144.9-19.2 142.87-18.74 142.91-19.36 142.98-19.82 143.06-20.05 143.33-21.31 143.17-21.93 142.6-22.39 142.06-22.81 141.49-23.08 140.64-23.31 142.37-23.96 143.98-24.65 145.17-25.26 146.05-25.84 146.24-26.53 146.05-27.18 145.78-28.06 144.82-29.59 143.06-30.47 142.71-30.59 142.1-30.51 141.64-29.9 140.34-28.29 135.24-24.49 131.37-22.27 130.6-21.96 130.98-21.31 131.56-21.27 133.21-21.2 135.35-21.62 137.54-22.27L137.54-22.23C137.85-21.08 137.92-20.35 137.96-19.13L137.96-17.75C134.55-17.13 131.14-16.67 129.22-16.67 127.76-16.56 127.99-15.22 129.6-13.65 130.49-12.61 131.64-12.34 132.98-12.65ZM115.46-13.91C115.96-13.19 116.84-12.27 117.57-11.92 118.18-11.58 118.87-11.73 119.48-12.04 120.63-12.57 121.48-12.84 122.17-13.03L122.17-12.88C122.09-10.46 121.67-6.13 121.06-3.07 120.79-2.11 120.4-1.57 119.48-1.15 118.56-0.69 118.6 0.19 119.25 0.84 119.98 1.61 121.36 2.76 122.17 3.26 122.78 3.6 123.78 3.53 124.28 2.72 126.69-0.19 127.96-2.68 129.45-5.48 129.53-5.71 129.64-5.94 129.76-6.17 130.06-6.78 130.41-7.36 130.75-8.05 131.1-8.66 130.41-9.05 129.99-8.62 129.11-7.74 127.96-6.82 126.23-5.67 126.38-7.51 126.73-10.85 126.92-12.04 127.07-12.69 127.34-13.49 127.76-14.11 128.3-14.76 128.34-15.33 127.57-16.06 126.69-16.98 125.73-17.79 124.74-18.09 124.08-18.36 123.47-18.25 122.97-17.86 122.01-17.17 118.68-15.79 116-15.33 115.15-15.26 115.08-14.64 115.46-13.91ZM121.29-27.1C122.13-24.92 123.13-22.73 124.31-20.97 124.74-20.39 125.54-20.28 126.08-20.51 127.3-21.12 127.99-22.23 128.3-23.77 128.72-27.41 125.5-28.33 121.86-28.1 121.25-28.1 121.21-27.56 121.29-27.1ZM136.47-4.83C136.62-4.83 136.77-4.87 136.93-4.87 138.04-5.17 142.87-6.17 143.48-6.25 143.83-6.29 143.94-6.17 143.9-5.75 143.86-4.52 143.75-3.45 143.6-2.07 143.17-2.03 142.71-1.95 142.18-1.92 140.38-1.69 138.11-1.42 136.62-1.26 136.58-2.49 136.5-3.83 136.47-4.83ZM171.43-12.15C173-12.99 174.49-14.45 175.83-16.21 175.99-16.14 176.1-16.06 176.22-15.98 176.75-15.56 177.56-15.37 178.4-15.68 178.06-15.45 178.06-14.99 178.25-14.49 178.71-13.11 178.59-11.84 178.33-10.46 178.29-10.2 178.21-9.93 178.1-9.62L176.68-11.61C176.06-12.57 173.99-13.26 172.15-12.5 171.81-12.38 171.77-12.11 172.04-11.81 174.07-9.66 174.88-7.74 176.18-5.75 174.11-2.57 170.93 0.92 167.82 3.26 166.98 3.91 167.25 4.29 169.01 3.95 171.16 3.49 175.18 1.42 178.56-2.41 180.05-0.15 181.55 2.22 182.24 2.95 182.93 3.72 184 3.95 185.53 3.91 186.61 3.87 188.56 3.53 190.48 2.95 191.13 2.8 191.55 2.07 190.44 1.61 189.48 1.15 187.07-0.46 185.65-1.61 184-2.99 182.47-4.48 181.12-5.98 181.66-6.94 182.16-7.93 182.58-9.01 182.89-9.74 183.08-9.97 183.65-11.08 184.04-11.73 184.15-12.38 183.46-13.53 182.96-14.3 180.82-15.87 179.05-15.83L178.86-15.83C181.35-16.56 186.3-17.4 187.83-17.56 188.64-17.59 188.98-18.28 188.68-18.74 188.25-19.32 187.6-20.05 186.84-20.66 186.38-21.04 185.34-21.24 184.19-20.97 182.43-20.58 180.05-19.86 177.87-19.2 178.86-20.93 179.71-22.69 180.36-24.34 180.78-25.61 181.89-27.71 180.47-29.02 179.48-30.13 177.6-30.4 176.18-30.74 175.26-30.9 174.57-30.86 174.8-30.05 175.22-29.25 175.3-28.29 175.34-27.33 175.3-24.57 173.96-17.98 171-12.65 170.81-12.3 171.08-11.96 171.43-12.15ZM155.21-17.4C155.82-16.1 157.24-14.6 158.55-15.03 159.31-15.26 160.88-15.56 162.72-15.87 162.69-15.29 162.69-14.91 162.69-14.76 162.65-14.22 162.53-12.84 162.8-12.15L162-12.04C162-12.11 161.92-12.23 161.84-12.34 160.92-12.8 159.47-13.34 157.97-12.99 157.13-12.84 157.09-12.42 157.32-11.92 157.59-11.42 157.86-10.58 158.05-9.85 158.35-8.32 158.62-2.84 158.74-1.49 158.89-0.88 159.01-0.46 159.62 0.08 160.19 0.69 161.57 1.42 162.46 0.88 162.99 0.61 163.18-0.31 162.95-1.61 163.8-1.72 164.53-1.8 165.48-1.88 165.6-1.69 165.71-1.46 165.83-1.19 166.17-0.04 166.86 0 167.75-0.46 169.2-1.07 169.66-1.49 169.85-2.61 170.08-3.91 170.7-7.97 170.93-8.97 171.04-9.66 171.23-9.85 171.39-10.35 171.62-10.77 171.58-11.15 171.12-11.73 170.39-12.69 168.97-13.34 167.86-13.65 167.44-13.72 167.13-13.72 166.9-13.53 166.79-13.45 166.71-13.38 166.63-13.3 166.67-13.88 166.71-14.68 166.75-15.75 166.75-15.95 166.79-16.21 166.79-16.52 168.82-16.83 170.66-17.06 171.77-17.17 172.42-17.29 172.54-18.02 172.15-18.63 171.66-19.43 171.04-20.12 170.47-20.51 170.08-20.74 169.7-20.93 168.44-20.58 168.13-20.47 167.63-20.35 166.98-20.2 167.09-22.27 167.21-24.46 167.32-25.64 167.4-26.45 168.05-27.06 167.32-27.83 166.63-28.63 165.14-29.94 163.22-29.86 162.57-29.82 162.3-29.4 162.49-28.67 162.61-28.33 162.92-27.29 162.95-26.37 163.03-24.49 162.95-21.73 162.88-19.4 160.12-18.9 157.24-18.51 156.17-18.48 155.4-18.44 155.06-17.86 155.21-17.4ZM162.15-9.58C162.42-9.47 162.69-9.39 163.07-9.43L166.21-9.93C166.86-10 166.67-9.39 166.67-9.05 166.67-8.62 166.52-6.55 166.33-5.06 164.76-4.87 163.61-4.71 162.57-4.6 162.42-6.29 162.23-8.2 162.15-9.58ZM211.33 6.63C213.09 6.02 213.71 3.72 213.67 0.31 213.67-0.69 213.63-2.11 213.59-3.87 214.44-3.91 215.24-3.95 215.93-3.95 215.97-3.76 216.01-3.6 216.08-3.45 216.31-2.72 217.81-2.34 219.53-3.56 220.49-4.29 220.45-5.37 220.65-7.09 220.68-7.63 220.84-8.16 221.03-8.78 222.87-8.82 224.71-8.82 226.47-8.74 227.85-8.7 228.2-9.43 227.97-10.31 227.7-11.42 226.97-12.15 226.51-12.5 225.94-13.03 225.32-13.19 224.67-13.07 224.33-13.03 223.44-12.88 222.14-12.69 222.14-12.76 222.18-12.84 222.18-12.92 222.33-13.65 222.68-14.07 222.06-14.72 221.41-15.41 219.96-15.98 218.31-16.52 217.92-16.64 217.66-16.48 217.16-16.21 216.35-15.87 215.7-15.72 213.44-15.41 213.44-16.02 213.44-16.64 213.4-17.21 214.44-17.33 215.32-17.4 216.01-17.4 216.12-17.29 216.24-17.13 216.39-16.94 216.7-16.52 217.31-16.52 217.81-16.67 218.61-16.94 219.88-17.06 220.11-17.9 220.53-19.2 220.95-20.28 221.41-21.43 221.64-22.23 221.57-22.42 221.3-22.73 220.91-23.19 219.27-24.03 218.69-24.42 218.23-24.69 217.89-24.46 217.62-24.34 216.85-24.03 215.24-23.65 213.4-23.31L213.4-24.46C216.62-24.88 219.84-25.15 222.49-25.11 224.67-25.07 225.21-25.91 224.86-26.68 224.4-27.68 223.98-28.25 223.41-28.79 222.95-29.21 222.56-29.59 220.72-29.25 219.57-29.02 216.81-28.48 213.55-27.94 213.59-29.21 213.63-30.47 213.09-30.97 212.44-31.62 210.64-32.47 208.92-32.47 207.84-32.47 207.46-32.24 207.96-30.93 208.19-30.28 208.46-28.67 208.65-27.14 204.51-26.53 200.48-25.95 198.64-25.91 197.72-25.91 197.11-25.61 197.57-24.72 198.41-23.23 199.98-21.96 201.36-22.31 203.28-22.73 205.96-23.31 208.92-23.8 208.95-23.38 208.95-22.96 208.95-22.54 207.54-22.31 206.19-22.16 205.27-22.04 205.2-22.19 205.08-22.31 204.89-22.39 204.32-22.62 202.55-22.5 201.59-22.31 201.02-22.16 201.02-21.85 201.29-21.47 201.52-21.2 201.67-20.81 201.75-20.51 202.13-19.43 202.51-17.75 202.51-16.98 202.59-16.21 202.55-15.79 203.2-15.45 203.66-15.26 205.08-14.83 205.66-14.95 205.96-14.99 206.19-15.45 206.27-16.02 207.08-16.21 208-16.41 208.95-16.6L208.95-14.95C206.46-14.76 203.51-14.57 201.63-14.45 201.21-14.41 201.02-14.07 201.21-13.65 202.02-11.92 202.9-11.19 203.86-11.42 205.04-11.73 206.96-11.92 208.92-12.11L208.92-10.92C203.7-10.27 198.53-9.74 195.61-9.66 194.58-9.62 194.35-9.16 195-8.01 195.5-7.28 197.22-5.98 198.34-6.21 201.1-6.75 204.78-7.4 208.88-7.86 208.88-7.4 208.88-6.9 208.84-6.4 205.81-6.09 202.78-5.86 201.75-5.94 201.36-5.98 201.02-5.67 201.17-5.02 201.48-3.79 202.44-2.49 204.09-2.87 204.97-3.03 206.77-3.26 208.8-3.49 208.8-2.22 208.76-0.96 208.76 0.38 208.76 1.65 208.19 1.42 207.77 1.46 206.96 1.61 205.2 1.46 204.24 1.46 203.86 1.46 203.74 1.88 204.2 2.15 205.58 2.91 207.5 4.33 208.42 5.79 208.95 6.63 210.26 7.36 211.33 6.63ZM205.66-19.63C206.54-19.82 207.73-20.01 208.99-20.24L208.99-18.71C207.88-18.55 206.85-18.36 205.93-18.17 205.81-18.63 205.73-19.09 205.66-19.63ZM213.4-20.93C214.51-21.08 215.36-21.2 215.66-21.2 215.93-21.2 216.05-21.12 216.05-20.89 216.05-20.55 215.97-20.09 215.89-19.7 215.28-19.63 214.4-19.55 213.4-19.4ZM213.48-12.46C214.32-12.53 215.05-12.61 215.59-12.69 215.82-12.73 216.08-12.76 216.08-12.34L216.08-11.84C215.24-11.73 214.36-11.61 213.48-11.5ZM213.52-8.36C214.32-8.43 215.16-8.51 215.97-8.55 215.93-8.24 215.93-7.93 215.89-7.55L215.89-7.32C215.39-7.21 214.55-7.09 213.55-6.98 213.55-7.44 213.52-7.9 213.52-8.36Z" transform="translate(-4.162185192108154, 32.470001220703125)"></path></g> <!----> <!----> <!----> <!----> <!----> <!----> <!----></g></g> <g data-gra="path-slogan" fill-rule="" class="tp-slogan iconsvg-slogansvg" fill="#000000" transform="translate(93.68153190612793,46.39967727661133)"><!----> <!----> <g transform="scale(1, 1)"><g transform="scale(1)"><path d="M8.06-6.05L8.06-6.05L6.94-6.05Q6.52-7.78 4.55-7.83L4.55-7.83Q1.83-7.69 1.73-4.36L1.73-4.36Q1.73-0.80 4.59-0.80L4.59-0.80Q6.56-0.84 7.03-3.19L7.03-3.19L8.16-3.19Q7.64 0.05 4.36 0.14L4.36 0.14Q0.61 0 0.52-4.31L0.52-4.31Q0.70-8.63 4.55-8.81L4.55-8.81Q7.59-8.72 8.06-6.05ZM10.69-5.06L15.19-5.06L15.19-8.58L16.36-8.58L16.36 0L15.19 0L15.19-3.98L10.69-3.98L10.69 0L9.52 0L9.52-8.58L10.69-8.58L10.69-5.06ZM18.33-8.58L19.50-8.58L19.50 0L18.33 0L18.33-8.58ZM22.88-8.58L27.19-1.64L27.19-8.58L28.31-8.58L28.31 0L27 0L22.64-6.94L22.59-6.94L22.59 0L21.47 0L21.47-8.58L22.88-8.58ZM35.77 0L34.92-2.48L31.45-2.48L30.56 0L29.39 0L32.63-8.58L33.94-8.58L37.03 0L35.77 0ZM33.19-7.31L31.83-3.52L34.50-3.52L33.23-7.31L33.19-7.31Z" transform="translate(-0.515625, 8.8125)"></path></g></g></g></g></g><defs v-gra="od"></defs></svg>